<svg xmlns="http://www.w3.org/2000/svg" width="79.574" height="90.537" viewBox="0 0 79.574 90.537">
  <g id="profits_4_" data-name="profits (4)" transform="translate(-31)">
    <path id="Path_5702" data-name="Path 5702" d="M191,272h12.378v31.829H191Z" transform="translate(-131.707 -223.902)" fill="#0670f4"/>
    <path id="Path_5703" data-name="Path 5703" d="M31,482h79.574v5.3H31Z" transform="translate(0 -396.768)" fill="#0d3a8f"/>
    <path id="Path_5704" data-name="Path 5704" d="M239.116,79.927h19.451V31.306h11.146L248.841,0,227.97,31.306h11.146Z" transform="translate(-162.14)" fill="#0670f4"/>
    <path id="Path_5705" data-name="Path 5705" d="M91,362h12.378v15.915H91Z" transform="translate(-49.39 -297.987)" fill="#0670f4"/>
    <path id="Path_5706" data-name="Path 5706" d="M98.957,53.22A2.652,2.652,0,1,1,96.512,56.9L91.626,58.97A7.944,7.944,0,0,0,96.3,63.376v5.758h5.3V63.373a7.957,7.957,0,0,0-2.652-15.459,2.652,2.652,0,1,1,2.445-3.684l4.886-2.067a7.946,7.946,0,0,0-4.679-4.406V32H96.3v5.761A7.957,7.957,0,0,0,98.957,53.22Z" transform="translate(-49.39 -26.341)" fill="#0d3a8f"/>
  </g>
</svg>
